<svg width="600" height="200" xmlns="http://www.w3.org/2000/svg">
    <defs>
      <linearGradient id="gradient" x1="0%" y1="0%" x2="0%" y2="100%">
        <stop offset="0%" style="stop-color:#22c55e;stop-opacity:0.3" />
        <stop offset="100%" style="stop-color:#22c55e;stop-opacity:0.1" />
      </linearGradient>
    </defs>
    
    <rect width="600" height="200" fill="#ffffff"/>
    
    <line x1="40" y1="40" x2="560" y2="40" stroke="#e5e7eb" stroke-width="1"/><line x1="40" y1="65" x2="560" y2="65" stroke="#e5e7eb" stroke-width="1"/><line x1="40" y1="90" x2="560" y2="90" stroke="#e5e7eb" stroke-width="1"/><line x1="40" y1="115" x2="560" y2="115" stroke="#e5e7eb" stroke-width="1"/><line x1="40" y1="140" x2="560" y2="140" stroke="#e5e7eb" stroke-width="1"/>
    
    <path d="M40,140 L40,139.19783032201383 L87.27272727272728,114.04408113373314 L134.54545454545456,40 L181.8181818181818,127.49761259024409 L229.0909090909091,131.87898697429236 L276.3636363636364,104.94518507200428 L323.6363636363636,127.10034760686045 L370.9090909090909,131.60013751480193 L418.1818181818182,124.6059818938844 L465.4545454545455,117.92505443294243 L512.7272727272727,137.1198288704687 L560,109.19286450972153 L560,140 Z" fill="url(#gradient)"/>
    <path d="M40,139.19783032201383 L87.27272727272728,114.04408113373314 L134.54545454545456,40 L181.8181818181818,127.49761259024409 L229.0909090909091,131.87898697429236 L276.3636363636364,104.94518507200428 L323.6363636363636,127.10034760686045 L370.9090909090909,131.60013751480193 L418.1818181818182,124.6059818938844 L465.4545454545455,117.92505443294243 L512.7272727272727,137.1198288704687 L560,109.19286450972153" stroke="#22c55e" stroke-width="2" fill="none"/>
    
    <circle cx="40" cy="139.19783032201383" r="3" fill="#22c55e"/><circle cx="87.27272727272728" cy="114.04408113373314" r="3" fill="#22c55e"/><circle cx="134.54545454545456" cy="40" r="3" fill="#22c55e"/><circle cx="181.8181818181818" cy="127.49761259024409" r="3" fill="#22c55e"/><circle cx="229.0909090909091" cy="131.87898697429236" r="3" fill="#22c55e"/><circle cx="276.3636363636364" cy="104.94518507200428" r="3" fill="#22c55e"/><circle cx="323.6363636363636" cy="127.10034760686045" r="3" fill="#22c55e"/><circle cx="370.9090909090909" cy="131.60013751480193" r="3" fill="#22c55e"/><circle cx="418.1818181818182" cy="124.6059818938844" r="3" fill="#22c55e"/><circle cx="465.4545454545455" cy="117.92505443294243" r="3" fill="#22c55e"/><circle cx="512.7272727272727" cy="137.1198288704687" r="3" fill="#22c55e"/><circle cx="560" cy="109.19286450972153" r="3" fill="#22c55e"/>
    
    <text x="40" y="155" text-anchor="middle" font-family="Arial, sans-serif" font-size="10" fill="#6b7280">Oct 2024</text><text x="181.8181818181818" y="155" text-anchor="middle" font-family="Arial, sans-serif" font-size="10" fill="#6b7280">Jan 2025</text><text x="323.6363636363636" y="155" text-anchor="middle" font-family="Arial, sans-serif" font-size="10" fill="#6b7280">Apr 2025</text><text x="465.4545454545455" y="155" text-anchor="middle" font-family="Arial, sans-serif" font-size="10" fill="#6b7280">Jul 2025</text>
    
    <text x="300" y="25" text-anchor="middle" font-family="Arial, sans-serif" font-size="16" font-weight="bold" fill="#374151">Lines Added</text>
    <text x="15" y="45" text-anchor="middle" font-family="Arial, sans-serif" font-size="12" fill="#6b7280">26179</text>
    <text x="15" y="145" text-anchor="middle" font-family="Arial, sans-serif" font-size="12" fill="#6b7280">0</text>
  </svg>