<svg width="600" height="200" xmlns="http://www.w3.org/2000/svg">
    <defs>
      <linearGradient id="gradient" x1="0%" y1="0%" x2="0%" y2="100%">
        <stop offset="0%" style="stop-color:#f59e0b;stop-opacity:0.3" />
        <stop offset="100%" style="stop-color:#f59e0b;stop-opacity:0.1" />
      </linearGradient>
    </defs>
    
    <rect width="600" height="200" fill="#ffffff"/>
    
    <line x1="40" y1="40" x2="560" y2="40" stroke="#e5e7eb" stroke-width="1"/><line x1="40" y1="65" x2="560" y2="65" stroke="#e5e7eb" stroke-width="1"/><line x1="40" y1="90" x2="560" y2="90" stroke="#e5e7eb" stroke-width="1"/><line x1="40" y1="115" x2="560" y2="115" stroke="#e5e7eb" stroke-width="1"/><line x1="40" y1="140" x2="560" y2="140" stroke="#e5e7eb" stroke-width="1"/>
    
    <path d="M40,140 L40,121.23915075443985 L87.27272727272728,130.54613433035118 L134.54545454545456,138.53117906262517 L181.8181818181818,75.82587795433302 L229.0909090909091,40 L276.3636363636364,121.71985578848978 L323.6363636363636,112.65322472960341 L370.9090909090909,62.15249031913473 L418.1818181818182,120.8252103084524 L465.4545454545455,111.67846174389103 L512.7272727272727,100.94271598344238 L560,94.01255174255576 L560,140 Z" fill="url(#gradient)"/>
    <path d="M40,121.23915075443985 L87.27272727272728,130.54613433035118 L134.54545454545456,138.53117906262517 L181.8181818181818,75.82587795433302 L229.0909090909091,40 L276.3636363636364,121.71985578848978 L323.6363636363636,112.65322472960341 L370.9090909090909,62.15249031913473 L418.1818181818182,120.8252103084524 L465.4545454545455,111.67846174389103 L512.7272727272727,100.94271598344238 L560,94.01255174255576" stroke="#f59e0b" stroke-width="2" fill="none"/>
    
    <circle cx="40" cy="121.23915075443985" r="3" fill="#f59e0b"/><circle cx="87.27272727272728" cy="130.54613433035118" r="3" fill="#f59e0b"/><circle cx="134.54545454545456" cy="138.53117906262517" r="3" fill="#f59e0b"/><circle cx="181.8181818181818" cy="75.82587795433302" r="3" fill="#f59e0b"/><circle cx="229.0909090909091" cy="40" r="3" fill="#f59e0b"/><circle cx="276.3636363636364" cy="121.71985578848978" r="3" fill="#f59e0b"/><circle cx="323.6363636363636" cy="112.65322472960341" r="3" fill="#f59e0b"/><circle cx="370.9090909090909" cy="62.15249031913473" r="3" fill="#f59e0b"/><circle cx="418.1818181818182" cy="120.8252103084524" r="3" fill="#f59e0b"/><circle cx="465.4545454545455" cy="111.67846174389103" r="3" fill="#f59e0b"/><circle cx="512.7272727272727" cy="100.94271598344238" r="3" fill="#f59e0b"/><circle cx="560" cy="94.01255174255576" r="3" fill="#f59e0b"/>
    
    <text x="40" y="155" text-anchor="middle" font-family="Arial, sans-serif" font-size="10" fill="#6b7280">Aug 2024</text><text x="181.8181818181818" y="155" text-anchor="middle" font-family="Arial, sans-serif" font-size="10" fill="#6b7280">Nov 2024</text><text x="323.6363636363636" y="155" text-anchor="middle" font-family="Arial, sans-serif" font-size="10" fill="#6b7280">Feb 2025</text><text x="465.4545454545455" y="155" text-anchor="middle" font-family="Arial, sans-serif" font-size="10" fill="#6b7280">May 2025</text>
    
    <text x="300" y="25" text-anchor="middle" font-family="Arial, sans-serif" font-size="16" font-weight="bold" fill="#374151">Net Lines Changed</text>
    <text x="15" y="45" text-anchor="middle" font-family="Arial, sans-serif" font-size="12" fill="#6b7280">7489</text>
    <text x="15" y="145" text-anchor="middle" font-family="Arial, sans-serif" font-size="12" fill="#6b7280">0</text>
  </svg>