<svg width="600" height="200" xmlns="http://www.w3.org/2000/svg">
    <defs>
      <linearGradient id="gradient" x1="0%" y1="0%" x2="0%" y2="100%">
        <stop offset="0%" style="stop-color:#f59e0b;stop-opacity:0.3" />
        <stop offset="100%" style="stop-color:#f59e0b;stop-opacity:0.1" />
      </linearGradient>
    </defs>
    
    <rect width="600" height="200" fill="#ffffff"/>
    
    <line x1="40" y1="40" x2="560" y2="40" stroke="#e5e7eb" stroke-width="1"/><line x1="40" y1="65" x2="560" y2="65" stroke="#e5e7eb" stroke-width="1"/><line x1="40" y1="90" x2="560" y2="90" stroke="#e5e7eb" stroke-width="1"/><line x1="40" y1="115" x2="560" y2="115" stroke="#e5e7eb" stroke-width="1"/><line x1="40" y1="140" x2="560" y2="140" stroke="#e5e7eb" stroke-width="1"/>
    
    <path d="M40,140 L40,120.42480164036729 L87.27272727272728,40 L134.54545454545456,128.46393866452706 L181.8181818181818,135.09004190068646 L229.0909090909091,112.08923954711598 L276.3636363636364,128.14968351609164 L323.6363636363636,134.9273424266738 L370.9090909090909,128.55754658108228 L418.1818181818182,121.918070785415 L465.4545454545455,126.96844075956137 L512.7272727272727,109.48381920299545 L560,129.81679593474192 L560,140 Z" fill="url(#gradient)"/>
    <path d="M40,120.42480164036729 L87.27272727272728,40 L134.54545454545456,128.46393866452706 L181.8181818181818,135.09004190068646 L229.0909090909091,112.08923954711598 L276.3636363636364,128.14968351609164 L323.6363636363636,134.9273424266738 L370.9090909090909,128.55754658108228 L418.1818181818182,121.918070785415 L465.4545454545455,126.96844075956137 L512.7272727272727,109.48381920299545 L560,129.81679593474192" stroke="#f59e0b" stroke-width="2" fill="none"/>
    
    <circle cx="40" cy="120.42480164036729" r="3" fill="#f59e0b"/><circle cx="87.27272727272728" cy="40" r="3" fill="#f59e0b"/><circle cx="134.54545454545456" cy="128.46393866452706" r="3" fill="#f59e0b"/><circle cx="181.8181818181818" cy="135.09004190068646" r="3" fill="#f59e0b"/><circle cx="229.0909090909091" cy="112.08923954711598" r="3" fill="#f59e0b"/><circle cx="276.3636363636364" cy="128.14968351609164" r="3" fill="#f59e0b"/><circle cx="323.6363636363636" cy="134.9273424266738" r="3" fill="#f59e0b"/><circle cx="370.9090909090909" cy="128.55754658108228" r="3" fill="#f59e0b"/><circle cx="418.1818181818182" cy="121.918070785415" r="3" fill="#f59e0b"/><circle cx="465.4545454545455" cy="126.96844075956137" r="3" fill="#f59e0b"/><circle cx="512.7272727272727" cy="109.48381920299545" r="3" fill="#f59e0b"/><circle cx="560" cy="129.81679593474192" r="3" fill="#f59e0b"/>
    
    <text x="40" y="155" text-anchor="middle" font-family="Arial, sans-serif" font-size="10" fill="#6b7280">Nov 2024</text><text x="181.8181818181818" y="155" text-anchor="middle" font-family="Arial, sans-serif" font-size="10" fill="#6b7280">Feb 2025</text><text x="323.6363636363636" y="155" text-anchor="middle" font-family="Arial, sans-serif" font-size="10" fill="#6b7280">May 2025</text><text x="465.4545454545455" y="155" text-anchor="middle" font-family="Arial, sans-serif" font-size="10" fill="#6b7280">Aug 2025</text>
    
    <text x="300" y="25" text-anchor="middle" font-family="Arial, sans-serif" font-size="16" font-weight="bold" fill="#374151">Total Lines Changed</text>
    <text x="15" y="45" text-anchor="middle" font-family="Arial, sans-serif" font-size="12" fill="#6b7280">44869</text>
    <text x="15" y="145" text-anchor="middle" font-family="Arial, sans-serif" font-size="12" fill="#6b7280">1</text>
  </svg>