<svg width="600" height="200" xmlns="http://www.w3.org/2000/svg">
    <defs>
      <linearGradient id="gradient" x1="0%" y1="0%" x2="0%" y2="100%">
        <stop offset="0%" style="stop-color:#f59e0b;stop-opacity:0.3" />
        <stop offset="100%" style="stop-color:#f59e0b;stop-opacity:0.1" />
      </linearGradient>
    </defs>
    
    <rect width="600" height="200" fill="#ffffff"/>
    
    <line x1="40" y1="40" x2="560" y2="40" stroke="#e5e7eb" stroke-width="1"/><line x1="40" y1="65" x2="560" y2="65" stroke="#e5e7eb" stroke-width="1"/><line x1="40" y1="90" x2="560" y2="90" stroke="#e5e7eb" stroke-width="1"/><line x1="40" y1="115" x2="560" y2="115" stroke="#e5e7eb" stroke-width="1"/><line x1="40" y1="140" x2="560" y2="140" stroke="#e5e7eb" stroke-width="1"/>
    
    <path d="M40,140 L40,139.3090998239319 L87.27272727272728,120.42300920457332 L134.54545454545456,40 L181.8181818181818,128.46196705966258 L229.0909090909091,135.0879226191803 L276.3636363636364,112.08763288684838 L323.6363636363636,128.14771891506385 L370.9090909090909,134.92522677126746 L418.1818181818182,128.55557288996857 L465.4545454545455,121.91624506897858 L512.7272727272727,126.96650248501193 L560,109.482270609998 L560,140 Z" fill="url(#gradient)"/>
    <path d="M40,139.3090998239319 L87.27272727272728,120.42300920457332 L134.54545454545456,40 L181.8181818181818,128.46196705966258 L229.0909090909091,135.0879226191803 L276.3636363636364,112.08763288684838 L323.6363636363636,128.14771891506385 L370.9090909090909,134.92522677126746 L418.1818181818182,128.55557288996857 L465.4545454545455,121.91624506897858 L512.7272727272727,126.96650248501193 L560,109.482270609998" stroke="#f59e0b" stroke-width="2" fill="none"/>
    
    <circle cx="40" cy="139.3090998239319" r="3" fill="#f59e0b"/><circle cx="87.27272727272728" cy="120.42300920457332" r="3" fill="#f59e0b"/><circle cx="134.54545454545456" cy="40" r="3" fill="#f59e0b"/><circle cx="181.8181818181818" cy="128.46196705966258" r="3" fill="#f59e0b"/><circle cx="229.0909090909091" cy="135.0879226191803" r="3" fill="#f59e0b"/><circle cx="276.3636363636364" cy="112.08763288684838" r="3" fill="#f59e0b"/><circle cx="323.6363636363636" cy="128.14771891506385" r="3" fill="#f59e0b"/><circle cx="370.9090909090909" cy="134.92522677126746" r="3" fill="#f59e0b"/><circle cx="418.1818181818182" cy="128.55557288996857" r="3" fill="#f59e0b"/><circle cx="465.4545454545455" cy="121.91624506897858" r="3" fill="#f59e0b"/><circle cx="512.7272727272727" cy="126.96650248501193" r="3" fill="#f59e0b"/><circle cx="560" cy="109.482270609998" r="3" fill="#f59e0b"/>
    
    <text x="40" y="155" text-anchor="middle" font-family="Arial, sans-serif" font-size="10" fill="#6b7280">Oct 2024</text><text x="181.8181818181818" y="155" text-anchor="middle" font-family="Arial, sans-serif" font-size="10" fill="#6b7280">Jan 2025</text><text x="323.6363636363636" y="155" text-anchor="middle" font-family="Arial, sans-serif" font-size="10" fill="#6b7280">Apr 2025</text><text x="465.4545454545455" y="155" text-anchor="middle" font-family="Arial, sans-serif" font-size="10" fill="#6b7280">Jul 2025</text>
    
    <text x="300" y="25" text-anchor="middle" font-family="Arial, sans-serif" font-size="16" font-weight="bold" fill="#374151">Total Lines Changed</text>
    <text x="15" y="45" text-anchor="middle" font-family="Arial, sans-serif" font-size="12" fill="#6b7280">44869</text>
    <text x="15" y="145" text-anchor="middle" font-family="Arial, sans-serif" font-size="12" fill="#6b7280">0</text>
  </svg>