<svg width="1823.203" height="201.724" xmlns="http://www.w3.org/2000/svg" viewBox="0 0 1823 201">

 <g>
  <title>background</title>
  <rect fill="none" id="canvas_background" height="203.724" width="1825.203" y="-1" x="-1"/>
 </g>
 <g>
  <title>Layer 1</title>
  <g id="Ebene_1">
   <g id="svg_1">
    <path id="svg_2" d="m466.681108,109.667886l43.015,0l0,5.434l-36.042,57.73l35.324,0l0,6.818l-44.553,0l0,-6.102l35.684,-57.113l-33.428,0l0,-6.767z" fill="#005AA0"/>
    <path id="svg_3" d="m559.171108,156.015886l-33.991,0c0.17,5.332 1.179,9.502 3.024,12.51c2.529,4.068 6.306,6.102 11.331,6.102c3.759,0 6.749,-1.18 8.972,-3.539c0.82,-0.887 1.692,-2.221 2.614,-3.998l6.871,0.82c-3.043,8.682 -9.212,13.021 -18.509,13.021c-6.084,0 -11.092,-1.98 -15.022,-5.947c-4.546,-4.613 -6.818,-11.176 -6.818,-19.688c0,-9.363 2.529,-16.525 7.588,-21.48c3.622,-3.555 8.22,-5.332 13.791,-5.332c6.904,0 12.22,2.889 15.945,8.664c2.802,4.375 4.204,9.965 4.204,16.766c0,0.546 0,1.247 0,2.101zm-7.639,-5.793c-0.307,-3.658 -1.094,-6.682 -2.357,-9.076c-2.256,-4.307 -5.726,-6.459 -10.408,-6.459c-4.546,0 -8.049,2.119 -10.51,6.357c-1.368,2.324 -2.325,5.383 -2.871,9.178l26.146,0z" fill="#005AA0"/>
    <path id="svg_4" d="m570.399108,129.866886l6.973,0c0.648,1.949 0.974,4.359 0.974,7.23c3.385,-5.742 8.46,-8.613 15.228,-8.613c4.442,0 8.066,1.162 10.869,3.486c2.699,2.289 4.272,5.504 4.717,9.639c0.171,1.641 0.257,4.785 0.257,9.434l0,28.607l-7.332,0l0,-28.146c0,-5.775 -0.428,-9.621 -1.281,-11.535c-1.539,-3.281 -4.461,-4.922 -8.768,-4.922c-4.717,0 -8.323,1.965 -10.818,5.895c-1.606,2.564 -2.409,6.205 -2.409,10.922l0,27.787l-7.28,0l0,-32.813c-0.034,-6.732 -0.12,-10.834 -0.256,-12.305c-0.14,-1.263 -0.431,-2.82 -0.874,-4.666z" fill="#005AA0"/>
    <path id="svg_5" d="m634.485108,129.866886l11.844,0l-0.103,5.947l-11.843,0l-0.462,25.277c-0.034,3.109 -0.052,4.803 -0.052,5.074c0,3.352 0.359,5.486 1.077,6.41c0.923,1.127 2.427,1.691 4.512,1.691c2.289,0 4.699,-0.58 7.229,-1.744l-0.104,6.512c-2.939,1.094 -5.862,1.641 -8.767,1.641c-5.059,0 -8.478,-1.504 -10.254,-4.512c-0.89,-1.504 -1.333,-3.93 -1.333,-7.279c0,-1.059 0.033,-2.428 0.103,-4.102c0.103,-2.324 0.153,-3.623 0.153,-3.896l0.615,-25.072l-7.536,0l0.103,-5.947l7.588,0l0.308,-14.355l7.178,0l-0.256,14.355z" fill="#005AA0"/>
    <path id="svg_6" d="m656.686108,129.866886l6.973,0c0.615,2.6 0.923,5.146 0.923,7.641c0,0.684 -0.034,1.709 -0.103,3.076c3.384,-8.066 7.673,-12.1 12.869,-12.1c1.879,0 3.896,0.529 6.049,1.588l0,7.332c-2.803,-1.299 -5.042,-1.947 -6.716,-1.947c-4.068,0 -7.264,2.563 -9.587,7.689c-1.436,3.213 -2.154,7.947 -2.154,14.201l0,22.303l-7.434,0l0,-32.607c-0.034,-5.742 -0.069,-9.158 -0.103,-10.254c-0.102,-2.119 -0.341,-4.426 -0.717,-6.922z" fill="#005AA0"/>
    <path id="svg_7" d="m691.497108,129.866886l7.281,0l0,30.455c0,4.957 0.58,8.305 1.742,10.049c1.744,2.666 4.58,3.998 8.512,3.998c4.408,0 7.758,-1.861 10.049,-5.588c1.436,-2.324 2.152,-5.877 2.152,-10.664l0,-28.25l7.332,0l0,34.658c0,4.479 0.017,7.264 0.051,8.357c0.068,2.326 0.444,4.582 1.129,6.768l-7.229,0c-0.649,-1.98 -0.992,-4.203 -1.025,-6.664c-1.197,2.223 -2.495,3.896 -3.896,5.023c-2.428,1.949 -5.555,2.922 -9.382,2.922c-4.068,0 -7.521,-0.99 -10.357,-2.973c-3.213,-2.289 -5.178,-5.486 -5.896,-9.588c-0.308,-1.775 -0.462,-4.461 -0.462,-8.049l0,-30.454l-0.001,0z" fill="#005AA0"/>
    <path id="svg_8" d="m742.819108,129.866886l7.178,0c0.648,1.846 0.99,4.137 1.025,6.871c3.041,-5.502 7.86,-8.254 14.457,-8.254c6.666,0 11.229,2.904 13.689,8.715c3.314,-5.811 8.425,-8.715 15.33,-8.715c6.22,0 10.492,2.137 12.816,6.408c1.025,1.813 1.623,4.324 1.795,7.537c0.068,0.992 0.103,3.229 0.103,6.715l0,30.506l-7.28,0l0,-30.453c0,-3.18 -0.086,-5.299 -0.256,-6.357c-0.753,-5.195 -3.896,-7.793 -9.434,-7.793c-4.444,0 -7.742,1.76 -9.896,5.279c-1.333,2.189 -1.999,5.471 -1.999,9.844l0,29.48l-7.332,0l0,-29.326c-0.034,-5.605 -0.377,-9.125 -1.025,-10.561c-1.47,-3.145 -4.307,-4.717 -8.511,-4.717c-2.666,0 -5.042,0.734 -7.126,2.203c-3.281,2.326 -4.922,6.787 -4.922,13.383l0,29.018l-7.332,0l0,-34.402c-0.034,-5.639 -0.12,-9.107 -0.256,-10.406c-0.171,-1.641 -0.512,-3.299 -1.024,-4.975z" fill="#005AA0"/>
    <path id="svg_9" d="m859.098108,129.866886l12.407,0l0,5.947l-12.1,0l0,43.836l-7.741,0l0,-43.836l-7.024,0l0,-5.947l7.024,0l0,-3.178c0,-3.828 0.17,-6.631 0.512,-8.408c0.615,-3.246 2.119,-5.76 4.512,-7.537c2.256,-1.674 4.99,-2.512 8.203,-2.512c2.29,0 4.939,0.512 7.947,1.537l0,6.768c-2.666,-1.23 -5.008,-1.846 -7.023,-1.846c-3.009,0 -4.991,1.352 -5.947,4.051c-0.514,1.367 -0.77,3.947 -0.77,7.742l0,3.383z" fill="#005AA0"/>
    <path id="svg_10" d="m880.168108,129.866886l7.281,0l0,30.455c0,4.957 0.58,8.305 1.742,10.049c1.744,2.666 4.58,3.998 8.512,3.998c4.408,0 7.758,-1.861 10.049,-5.588c1.436,-2.324 2.152,-5.877 2.152,-10.664l0,-28.25l7.332,0l0,34.658c0,4.479 0.017,7.264 0.051,8.357c0.068,2.326 0.444,4.582 1.129,6.768l-7.229,0c-0.649,-1.98 -0.992,-4.203 -1.025,-6.664c-1.197,2.223 -2.495,3.896 -3.896,5.023c-2.428,1.949 -5.555,2.922 -9.382,2.922c-4.068,0 -7.521,-0.99 -10.357,-2.973c-3.213,-2.289 -5.178,-5.486 -5.896,-9.588c-0.308,-1.775 -0.462,-4.461 -0.462,-8.049l0,-30.454l-0.001,0zm9.743,-20.764c1.469,0 2.733,0.531 3.793,1.59c1.094,1.094 1.641,2.393 1.641,3.896c0,1.537 -0.547,2.838 -1.641,3.896c-1.06,1.094 -2.341,1.641 -3.845,1.641c-1.538,0 -2.838,-0.547 -3.896,-1.641c-1.095,-1.059 -1.641,-2.34 -1.641,-3.846c0,-1.57 0.546,-2.887 1.641,-3.947c1.093,-1.057 2.409,-1.589 3.948,-1.589zm17.841,-0.05c1.503,0 2.785,0.547 3.845,1.641c1.094,1.061 1.641,2.357 1.641,3.896c0,1.537 -0.547,2.838 -1.641,3.896c-1.095,1.094 -2.393,1.641 -3.896,1.641c-1.505,0 -2.803,-0.547 -3.896,-1.641c-1.095,-1.094 -1.641,-2.393 -1.641,-3.896c0,-1.539 0.546,-2.836 1.641,-3.896c1.093,-1.094 2.408,-1.641 3.947,-1.641z" fill="#005AA0"/>
    <path id="svg_11" d="m931.952108,129.866886l6.973,0c0.615,2.6 0.923,5.146 0.923,7.641c0,0.684 -0.034,1.709 -0.103,3.076c3.384,-8.066 7.673,-12.1 12.869,-12.1c1.879,0 3.896,0.529 6.049,1.588l0,7.332c-2.803,-1.299 -5.042,-1.947 -6.716,-1.947c-4.068,0 -7.264,2.563 -9.587,7.689c-1.436,3.213 -2.154,7.947 -2.154,14.201l0,22.303l-7.434,0l0,-32.607c-0.034,-5.742 -0.069,-9.158 -0.103,-10.254c-0.102,-2.119 -0.341,-4.426 -0.717,-6.922z" fill="#005AA0"/>
    <path id="svg_12" d="m1002.550108,179.649886l-8.05,0l0,-69.982l8.05,0l0,69.982z" fill="#005AA0"/>
    <path id="svg_13" d="m1017.879108,129.866886l6.973,0c0.648,1.949 0.974,4.359 0.974,7.23c3.385,-5.742 8.46,-8.613 15.228,-8.613c4.442,0 8.066,1.162 10.869,3.486c2.699,2.289 4.272,5.504 4.717,9.639c0.171,1.641 0.257,4.785 0.257,9.434l0,28.607l-7.332,0l0,-28.146c0,-5.775 -0.428,-9.621 -1.281,-11.535c-1.539,-3.281 -4.461,-4.922 -8.768,-4.922c-4.717,0 -8.323,1.965 -10.818,5.895c-1.606,2.564 -2.409,6.205 -2.409,10.922l0,27.787l-7.28,0l0,-32.813c-0.034,-6.732 -0.12,-10.834 -0.256,-12.305c-0.139,-1.263 -0.43,-2.82 -0.874,-4.666z" fill="#005AA0"/>
    <path id="svg_14" d="m1080.479108,129.866886l12.407,0l0,5.947l-12.1,0l0,43.836l-7.741,0l0,-43.836l-7.024,0l0,-5.947l7.024,0l0,-3.178c0,-3.828 0.17,-6.631 0.512,-8.408c0.615,-3.246 2.119,-5.76 4.512,-7.537c2.256,-1.674 4.99,-2.512 8.203,-2.512c2.29,0 4.939,0.512 7.947,1.537l0,6.768c-2.666,-1.23 -5.008,-1.846 -7.023,-1.846c-3.009,0 -4.991,1.352 -5.947,4.051c-0.514,1.367 -0.77,3.947 -0.77,7.742l0,3.383z" fill="#005AA0"/>
    <path id="svg_15" d="m1140.363108,156.015886l-33.991,0c0.17,5.332 1.179,9.502 3.024,12.51c2.529,4.068 6.306,6.102 11.331,6.102c3.759,0 6.749,-1.18 8.972,-3.539c0.82,-0.887 1.692,-2.221 2.614,-3.998l6.871,0.82c-3.043,8.682 -9.212,13.021 -18.509,13.021c-6.084,0 -11.092,-1.98 -15.022,-5.947c-4.546,-4.613 -6.818,-11.176 -6.818,-19.688c0,-9.363 2.529,-16.525 7.588,-21.48c3.622,-3.555 8.22,-5.332 13.791,-5.332c6.904,0 12.22,2.889 15.945,8.664c2.802,4.375 4.204,9.965 4.204,16.766c0,0.546 0,1.247 0,2.101zm-7.64,-5.793c-0.307,-3.658 -1.094,-6.682 -2.357,-9.076c-2.256,-4.307 -5.726,-6.459 -10.408,-6.459c-4.546,0 -8.049,2.119 -10.51,6.357c-1.368,2.324 -2.325,5.383 -2.871,9.178l26.146,0z" fill="#005AA0"/>
    <path id="svg_16" d="m1152.821108,109.308886l7.331,0l0,70.342l-7.331,0l0,-70.342zm28.506,20.558l8.87,0l-20.765,22.406l22.354,27.377l-10.151,0l-21.328,-27.121l21.02,-22.662z" fill="#005AA0"/>
    <path id="svg_17" d="m1213.370108,129.866886l11.844,0l-0.103,5.947l-11.843,0l-0.462,25.277c-0.034,3.109 -0.052,4.803 -0.052,5.074c0,3.352 0.359,5.486 1.077,6.41c0.923,1.127 2.427,1.691 4.512,1.691c2.289,0 4.699,-0.58 7.229,-1.744l-0.104,6.512c-2.939,1.094 -5.862,1.641 -8.767,1.641c-5.059,0 -8.478,-1.504 -10.254,-4.512c-0.89,-1.504 -1.333,-3.93 -1.333,-7.279c0,-1.059 0.033,-2.428 0.103,-4.102c0.103,-2.324 0.153,-3.623 0.153,-3.896l0.615,-25.072l-7.536,0l0.103,-5.947l7.588,0l0.308,-14.355l7.178,0l-0.256,14.355z" fill="#005AA0"/>
    <path id="svg_18" d="m1240.287108,108.692886c1.401,0 2.58,0.428 3.537,1.281c1.162,0.992 1.744,2.377 1.744,4.154c0,1.436 -0.445,2.633 -1.334,3.588c-1.025,1.129 -2.357,1.691 -3.998,1.691c-1.573,0 -2.854,-0.477 -3.846,-1.436c-1.025,-0.99 -1.538,-2.256 -1.538,-3.793c0,-1.674 0.546,-3.025 1.641,-4.051c1.025,-0.953 2.289,-1.434 3.794,-1.434zm-3.948,21.174l7.741,0l0,49.783l-7.741,0l0,-49.783z" fill="#005AA0"/>
    <path id="svg_19" d="m1278.226108,128.483886c5.811,0 10.715,2.068 14.715,6.203c4.682,4.854 7.023,11.535 7.023,20.047c0,8.441 -2.342,15.107 -7.023,19.994c-3.966,4.137 -8.854,6.203 -14.664,6.203c-5.947,0 -10.869,-2.066 -14.766,-6.203c-4.683,-4.955 -7.023,-11.758 -7.023,-20.404c0,-5.4 1.128,-10.236 3.384,-14.51c2.153,-4.102 5.127,-7.127 8.921,-9.074c2.939,-1.504 6.082,-2.256 9.433,-2.256zm0,6.305c-4.068,0 -7.332,1.625 -9.793,4.871c-2.905,3.863 -4.357,8.785 -4.357,14.766c0,6.357 1.452,11.469 4.357,15.33c2.461,3.248 5.725,4.871 9.793,4.871c4.067,0 7.332,-1.623 9.793,-4.871c2.904,-3.861 4.357,-8.869 4.357,-15.021c0,-6.256 -1.453,-11.279 -4.357,-15.074c-2.496,-3.247 -5.761,-4.872 -9.793,-4.872z" fill="#005AA0"/>
    <path id="svg_20" d="m1311.141108,129.866886l6.973,0c0.648,1.949 0.974,4.359 0.974,7.23c3.385,-5.742 8.46,-8.613 15.228,-8.613c4.442,0 8.066,1.162 10.869,3.486c2.699,2.289 4.272,5.504 4.717,9.639c0.171,1.641 0.257,4.785 0.257,9.434l0,28.607l-7.332,0l0,-28.146c0,-5.775 -0.428,-9.621 -1.281,-11.535c-1.539,-3.281 -4.461,-4.922 -8.768,-4.922c-4.717,0 -8.323,1.965 -10.818,5.895c-1.606,2.564 -2.409,6.205 -2.409,10.922l0,27.787l-7.28,0l0,-32.813c-0.034,-6.732 -0.12,-10.834 -0.256,-12.305c-0.14,-1.263 -0.431,-2.82 -0.874,-4.666z" fill="#005AA0"/>
    <path id="svg_21" d="m1398.196108,143.556886l-7.126,0c-0.342,-2.836 -1.162,-4.922 -2.461,-6.254c-1.743,-1.777 -4.307,-2.666 -7.69,-2.666c-2.905,0 -5.281,0.752 -7.127,2.256c-1.606,1.299 -2.409,3.043 -2.409,5.229c0,2.018 0.751,3.59 2.256,4.717c1.401,1.025 4.494,2.256 9.28,3.691c4.922,1.436 8.287,2.684 10.1,3.742c3.999,2.326 5.998,6.033 5.998,11.127c0,4.512 -1.47,8.17 -4.408,10.971c-3.214,3.043 -7.742,4.563 -13.587,4.563c-5.674,0 -10.186,-1.314 -13.535,-3.947c-3.521,-2.801 -5.28,-7.057 -5.28,-12.766l7.074,0c0.649,7.041 4.512,10.561 11.588,10.561c3.007,0 5.451,-0.699 7.331,-2.102c2.153,-1.57 3.229,-3.793 3.229,-6.664c0,-2.529 -1.043,-4.461 -3.127,-5.795c-1.23,-0.75 -4.939,-2.084 -11.125,-3.998c-5.025,-1.539 -8.443,-3.299 -10.254,-5.281c-2.018,-2.221 -3.025,-5.006 -3.025,-8.357c0,-4.512 1.743,-8.031 5.229,-10.561c3.212,-2.359 7.16,-3.537 11.843,-3.537c6.733,0 11.588,2.084 14.561,6.254c1.571,2.221 2.46,5.16 2.665,8.817z" fill="#005AA0"/>
    <path id="svg_22" d="m1419.730108,129.866886l12.407,0l0,5.947l-12.1,0l0,43.836l-7.741,0l0,-43.836l-7.024,0l0,-5.947l7.024,0l0,-3.178c0,-3.828 0.17,-6.631 0.512,-8.408c0.615,-3.246 2.119,-5.76 4.512,-7.537c2.256,-1.674 4.99,-2.512 8.203,-2.512c2.29,0 4.939,0.512 7.947,1.537l0,6.768c-2.666,-1.23 -5.008,-1.846 -7.023,-1.846c-3.009,0 -4.991,1.352 -5.947,4.051c-0.514,1.367 -0.77,3.947 -0.77,7.742l0,3.383z" fill="#005AA0"/>
    <path id="svg_23" d="m1459.822108,128.483886c5.811,0 10.715,2.068 14.715,6.203c4.682,4.854 7.023,11.535 7.023,20.047c0,8.441 -2.342,15.107 -7.023,19.994c-3.966,4.137 -8.854,6.203 -14.664,6.203c-5.947,0 -10.869,-2.066 -14.765,-6.203c-4.683,-4.955 -7.023,-11.758 -7.023,-20.404c0,-5.4 1.128,-10.236 3.384,-14.51c2.153,-4.102 5.127,-7.127 8.921,-9.074c2.938,-1.504 6.082,-2.256 9.432,-2.256zm0,6.305c-4.068,0 -7.332,1.625 -9.792,4.871c-2.905,3.863 -4.357,8.785 -4.357,14.766c0,6.357 1.452,11.469 4.357,15.33c2.461,3.248 5.724,4.871 9.792,4.871c4.067,0 7.332,-1.623 9.793,-4.871c2.904,-3.861 4.357,-8.869 4.357,-15.021c0,-6.256 -1.453,-11.279 -4.357,-15.074c-2.496,-3.247 -5.761,-4.872 -9.793,-4.872z" fill="#005AA0"/>
    <path id="svg_24" d="m1493.250108,129.866886l6.973,0c0.615,2.6 0.923,5.146 0.923,7.641c0,0.684 -0.034,1.709 -0.103,3.076c3.384,-8.066 7.673,-12.1 12.869,-12.1c1.879,0 3.896,0.529 6.049,1.588l0,7.332c-2.803,-1.299 -5.042,-1.947 -6.716,-1.947c-4.068,0 -7.264,2.563 -9.587,7.689c-1.436,3.213 -2.154,7.947 -2.154,14.201l0,22.303l-7.434,0l0,-32.607c-0.034,-5.742 -0.069,-9.158 -0.103,-10.254c-0.102,-2.119 -0.341,-4.426 -0.717,-6.922z" fill="#005AA0"/>
    <path id="svg_25" d="m1561.284108,143.556886l-7.126,0c-0.342,-2.836 -1.162,-4.922 -2.461,-6.254c-1.743,-1.777 -4.307,-2.666 -7.69,-2.666c-2.905,0 -5.281,0.752 -7.127,2.256c-1.606,1.299 -2.409,3.043 -2.409,5.229c0,2.018 0.751,3.59 2.256,4.717c1.401,1.025 4.494,2.256 9.28,3.691c4.922,1.436 8.287,2.684 10.1,3.742c3.999,2.326 5.998,6.033 5.998,11.127c0,4.512 -1.47,8.17 -4.408,10.971c-3.214,3.043 -7.742,4.563 -13.587,4.563c-5.674,0 -10.186,-1.314 -13.535,-3.947c-3.521,-2.801 -5.28,-7.057 -5.28,-12.766l7.074,0c0.649,7.041 4.512,10.561 11.588,10.561c3.007,0 5.451,-0.699 7.331,-2.102c2.153,-1.57 3.229,-3.793 3.229,-6.664c0,-2.529 -1.043,-4.461 -3.127,-5.795c-1.23,-0.75 -4.939,-2.084 -11.125,-3.998c-5.025,-1.539 -8.443,-3.299 -10.254,-5.281c-2.018,-2.221 -3.025,-5.006 -3.025,-8.357c0,-4.512 1.743,-8.031 5.229,-10.561c3.212,-2.359 7.16,-3.537 11.843,-3.537c6.733,0 11.588,2.084 14.561,6.254c1.571,2.221 2.46,5.16 2.665,8.817z" fill="#005AA0"/>
    <path id="svg_26" d="m1610.299108,146.067886l-7.28,0c-0.547,-3.211 -1.333,-5.604 -2.358,-7.178c-1.777,-2.732 -4.581,-4.102 -8.408,-4.102c-3.966,0 -7.023,1.521 -9.178,4.564c-2.768,3.896 -4.152,9.041 -4.152,15.432c0,7.725 1.879,13.398 5.64,17.021c1.948,1.881 4.58,2.82 7.896,2.82c6.46,0 10.1,-4.033 10.92,-12.1l7.332,0c-0.41,5.195 -1.863,9.348 -4.357,12.457c-3.146,3.967 -7.793,5.947 -13.945,5.947c-5.504,0 -10.101,-1.826 -13.792,-5.484c-4.854,-4.82 -7.28,-11.689 -7.28,-20.611c0,-9.193 2.546,-16.285 7.639,-21.277c3.452,-3.383 7.947,-5.074 13.484,-5.074c6.596,0 11.501,2.479 14.715,7.434c1.705,2.634 2.747,6.017 3.124,10.151z" fill="#005AA0"/>
    <path id="svg_27" d="m1623.167108,109.308886l7.28,0l0,26.404c3.622,-4.82 8.391,-7.229 14.305,-7.229c3.656,0 6.835,0.838 9.535,2.512c3.042,1.914 4.99,4.785 5.846,8.613c0.41,1.914 0.615,5.725 0.615,11.434l0,28.607l-7.281,0l0,-28.146c0,-5.811 -0.479,-9.639 -1.436,-11.484c-1.675,-3.314 -4.597,-4.973 -8.767,-4.973c-4.648,0 -8.151,1.982 -10.511,5.947c-1.537,2.563 -2.307,6.324 -2.307,11.279l0,27.377l-7.28,0l0,-70.341l0.001,0z" fill="#005AA0"/>
    <path id="svg_28" d="m1675.615108,129.866886l7.281,0l0,30.455c0,4.957 0.58,8.305 1.742,10.049c1.744,2.666 4.58,3.998 8.512,3.998c4.408,0 7.758,-1.861 10.049,-5.588c1.436,-2.324 2.152,-5.877 2.152,-10.664l0,-28.25l7.332,0l0,34.658c0,4.479 0.017,7.264 0.051,8.357c0.068,2.326 0.444,4.582 1.129,6.768l-7.229,0c-0.649,-1.98 -0.992,-4.203 -1.025,-6.664c-1.197,2.223 -2.495,3.896 -3.896,5.023c-2.428,1.949 -5.555,2.922 -9.382,2.922c-4.068,0 -7.521,-0.99 -10.357,-2.973c-3.213,-2.289 -5.178,-5.486 -5.896,-9.588c-0.308,-1.775 -0.462,-4.461 -0.462,-8.049l0,-30.454l-0.001,0z" fill="#005AA0"/>
    <path id="svg_29" d="m1726.886108,129.866886l6.973,0c0.648,1.949 0.974,4.359 0.974,7.23c3.385,-5.742 8.46,-8.613 15.228,-8.613c4.442,0 8.066,1.162 10.869,3.486c2.699,2.289 4.272,5.504 4.717,9.639c0.171,1.641 0.257,4.785 0.257,9.434l0,28.607l-7.332,0l0,-28.146c0,-5.775 -0.428,-9.621 -1.281,-11.535c-1.539,-3.281 -4.461,-4.922 -8.768,-4.922c-4.717,0 -8.323,1.965 -10.818,5.895c-1.606,2.564 -2.409,6.205 -2.409,10.922l0,27.787l-7.28,0l0,-32.813c-0.034,-6.732 -0.12,-10.834 -0.256,-12.305c-0.14,-1.263 -0.431,-2.82 -0.874,-4.666z" fill="#005AA0"/>
    <path id="svg_30" d="m1821.733108,129.866886l0,5.59l-10.202,-0.205c2.871,2.666 4.307,6.459 4.307,11.381c0,4.992 -1.607,8.734 -4.819,11.229c-2.085,1.641 -5.896,3.059 -11.434,4.256c-3.76,0.82 -6.289,1.521 -7.588,2.102c-1.947,0.922 -2.922,2.051 -2.922,3.383c0,0.855 0.479,1.521 1.436,2c0.786,0.377 3.622,0.805 8.511,1.281c5.024,0.514 8.425,0.975 10.202,1.385c8.066,1.846 12.1,6.289 12.1,13.33c0,5.127 -2.256,9.074 -6.768,11.844c-3.965,2.393 -9.229,3.588 -15.791,3.588c-7.178,0 -12.868,-1.469 -17.072,-4.408c-3.556,-2.496 -5.332,-5.828 -5.332,-9.998c0,-3.863 1.452,-6.904 4.357,-9.125c1.539,-1.162 3.59,-2.188 6.152,-3.076c-3.555,-1.402 -5.332,-3.334 -5.332,-5.795c0,-2.221 1.23,-4.082 3.691,-5.588c1.334,-0.82 3.059,-1.641 5.179,-2.461c-6.597,-2.631 -9.896,-7.416 -9.896,-14.355c0,-5.605 2,-9.998 5.999,-13.176c3.179,-2.529 7.263,-3.795 12.253,-3.795c2.461,0 5.059,0.377 7.793,1.129l15.176,-0.516zm-23.48,47.783c-4.376,0 -7.862,0.635 -10.459,1.898c-3.146,1.504 -4.717,3.725 -4.717,6.664c0,2.699 1.436,4.82 4.307,6.357c3.041,1.572 6.869,2.359 11.484,2.359c5.57,0 9.723,-1.061 12.458,-3.18c1.879,-1.469 2.819,-3.314 2.819,-5.537c0,-3.109 -1.675,-5.4 -5.023,-6.869c-2.599,-1.127 -6.222,-1.692 -10.869,-1.692zm0.358,-42.502c-3.146,0 -5.726,0.941 -7.741,2.82c-2.188,2.051 -3.281,4.752 -3.281,8.1c0,3.111 0.956,5.572 2.871,7.383c2.016,1.916 4.613,2.871 7.793,2.871c3.178,0 5.742,-0.904 7.689,-2.717c1.949,-1.846 2.923,-4.34 2.923,-7.484c0,-2.975 -0.854,-5.486 -2.563,-7.537c-1.983,-2.289 -4.546,-3.436 -7.691,-3.436z" fill="#005AA0"/>
   </g>
   <g id="svg_31">
    <path id="svg_32" d="m507.582108,32.045886l0,-30.977l14.688,0l0,76.536l-14.688,0l0,-30.871l-26.23,0l0,30.871l-14.679,0l0,-76.536l14.679,0l0,30.977l26.23,0z" fill="#005AA0"/>
    <path id="svg_33" d="m586.975108,1.068886l0,14.68l-33.578,0l0,16.297l29.148,0l0,14.688l-29.148,0l0,16.191l33.578,0l0,14.68l-41.023,0c-0.65,0 -1.301,-0.221 -1.732,-0.757l-4.747,-4.746c-0.536,-0.431 -0.756,-1.081 -0.756,-1.731l0,-62.076c0,-0.642 0.22,-1.292 0.756,-1.723l4.747,-4.747c0.431,-0.438 1.082,-0.756 1.732,-0.756l41.023,0z" fill="#005AA0"/>
    <path id="svg_34" d="m609.679108,77.604886c-0.65,0 -1.301,-0.221 -1.731,-0.757l-4.747,-4.746c-0.545,-0.431 -0.756,-1.081 -0.756,-1.731l0,-69.302l14.679,0l0,61.856l31.952,0l0,14.68l-39.397,0z" fill="#005AA0"/>
    <path id="svg_35" d="m727.906108,1.068886l0,76.536l-14.679,0l0,-42.316l-11.981,25.043c-0.431,0.861 -1.292,1.406 -2.162,1.406l-8.632,0c-0.976,0 -1.837,-0.545 -2.268,-1.406l-11.981,-25.043l0,42.316l-14.679,0l0,-76.536l14.679,0l18.565,38.861l18.459,-38.861l14.679,0z" fill="#005AA0"/>
    <path id="svg_36" d="m784.304108,32.045886l0,-30.977l14.688,0l0,76.536l-14.688,0l0,-30.871l-26.23,0l0,30.871l-14.679,0l0,-76.536l14.679,0l0,30.977l26.23,0z" fill="#005AA0"/>
    <path id="svg_37" d="m857.974108,4.734886l7.665,7.56c2.268,2.268 3.56,5.396 3.56,8.631l0,36.813c0,3.243 -1.292,6.373 -3.56,8.641l-7.665,7.665c-2.268,2.268 -5.397,3.561 -8.641,3.561l-17.158,0c-3.243,0 -6.478,-1.188 -8.746,-3.561l-7.56,-7.665c-2.268,-2.268 -3.56,-5.397 -3.56,-8.641l0,-36.813c0,-3.234 1.292,-6.363 3.56,-8.631l7.56,-7.56c2.374,-2.374 5.503,-3.666 8.746,-3.666l17.157,0c3.244,0 6.268,1.398 8.642,3.666zm-3.455,51.062l0,-32.813c0,-0.65 -0.325,-1.301 -0.756,-1.731l-4.641,-4.747c-0.545,-0.431 -1.187,-0.756 -1.837,-0.756l-13.167,0c-0.65,0 -1.187,0.325 -1.732,0.756l-4.641,4.747c-0.536,0.431 -0.756,1.081 -0.756,1.731l0,32.813c0,0.65 0.22,1.187 0.756,1.731l4.641,4.642c0.545,0.535 1.082,0.756 1.732,0.756l13.167,0c0.65,0 1.292,-0.221 1.837,-0.756l4.641,-4.642c0.431,-0.545 0.756,-1.081 0.756,-1.731z" fill="#005AA0"/>
    <path id="svg_38" d="m889.424108,77.604886c-0.65,0 -1.301,-0.221 -1.731,-0.757l-4.747,-4.746c-0.545,-0.431 -0.756,-1.081 -0.756,-1.731l0,-69.302l14.68,0l0,61.856l31.952,0l0,14.68l-39.398,0z" fill="#005AA0"/>
    <path id="svg_39" d="m927.767108,15.748886l0,-14.68l55.272,0l0,14.68l-20.296,0l0,61.856l-14.679,0l0,-61.856l-20.297,0z" fill="#005AA0"/>
    <path id="svg_40" d="m1039.867108,1.824886l4.747,4.747c0.431,0.431 0.756,1.081 0.756,1.723l0,3.779l-32.172,50.852l31.741,0l0,14.68l-43.828,0c-0.65,0 -1.301,-0.221 -1.731,-0.757l-4.747,-4.746c-0.431,-0.431 -0.756,-1.081 -0.756,-1.731l0,-4.422l31.741,-50.2l-32.171,0l0,-14.68l44.688,0c0.651,-0.001 1.301,0.317 1.732,0.755z" fill="#005AA0"/>
   </g>
   <g id="svg_41">
    <path id="svg_42" d="m95.585108,73.358886l0,-72.29l34.259,0l0,178.583l-34.259,0l0,-72.039l-61.207,0l0,72.039l-34.254,0l0,-178.583l34.254,0l0,72.29l61.207,0z" fill="#005AA0"/>
    <path id="svg_43" d="m264.993108,1.150886c1.517,0 2.972,0.603 4.041,1.676l11.078,11.078c1.069,1.069 1.671,2.523 1.671,4.036l0,8.742l-75.098,118.696l75.098,0l0,34.273l-103.264,0c-1.512,0 -2.967,-0.602 -4.036,-1.672l-11.078,-11.077c-1.069,-1.074 -1.671,-2.524 -1.671,-4.041l0,-10.534l73.966,-116.903l-73.224,0l0,-34.273l102.517,0l0,-0.001z" fill="#005AA0"/>
    <path id="svg_44" d="m355.478108,179.651886l-34.254,0l0,-178.583l34.254,0l0,178.583z" fill="#005AA0"/>
   </g>
  </g>
  <g display="none" id="Ebene_2">
   <path id="svg_45" d="m618.653,184.047l0,-30.977l14.688,0l0,76.536l-14.688,0l0,-30.871l-26.229,0l0,30.871l-14.68,0l0,-76.536l14.68,0l0,30.977l26.229,0z" fill="#BDC3C5"/>
   <path id="svg_46" d="m563.056,184.047l0,-30.977l14.688,0l0,76.536l-14.688,0l0,-30.871l-26.23,0l0,30.871l-14.679,0l0,-76.536l14.679,0l0,30.977l26.23,0z" fill="#BDC3C5"/>
   <path id="svg_47" d="m152.104,286.094l0,-30.976l14.688,0l0,76.535l-14.688,0l0,-30.871l-26.229,0l0,30.871l-14.68,0l0,-76.535l14.68,0l0,30.976l26.229,0z" fill="#BDC3C5"/>
   <path id="svg_48" d="m96.506,286.094l0,-30.976l14.688,0l0,76.535l-14.688,0l0,-30.871l-26.23,0l0,30.871l-14.679,0l0,-76.535l14.679,0l0,30.976l26.23,0z" fill="#BDC3C5"/>
   <path id="svg_49" d="m40.909,286.094l0,-30.976l14.688,0l0,76.535l-14.688,0l0,-30.871l-26.23,0l0,30.871l-14.679,0l0,-76.535l14.679,0l0,30.976l26.23,0z" fill="#BDC3C5"/>
   <path id="svg_50" d="m2140.502,285.815l0,-30.977l14.688,0l0,76.535l-14.688,0l0,-30.87l-26.23,0l0,30.87l-14.679,0l0,-76.535l14.679,0l0,30.977l26.23,0z" fill="#BDC3C5"/>
   <path id="svg_51" d="m2084.904,285.815l0,-30.977l14.688,0l0,76.535l-14.688,0l0,-30.87l-26.229,0l0,30.87l-14.68,0l0,-76.535l14.68,0l0,30.977l26.229,0z" fill="#BDC3C5"/>
   <path id="svg_52" d="m2029.307,285.815l0,-30.977l14.688,0l0,76.535l-14.688,0l0,-30.87l-26.229,0l0,30.87l-14.68,0l0,-76.535l14.68,0l0,30.977l26.229,0z" fill="#BDC3C5"/>
   <path id="svg_53" d="m674.25,107.512l0,-30.977l14.688,0l0,76.535l-14.688,0l0,-30.87l-26.23,0l0,30.87l-14.679,0l0,-76.535l14.679,0l0,30.977l26.23,0z" fill="#BDC3C5"/>
   <path id="svg_54" d="m674.25,30.976l0,-30.976l14.688,0l0,76.535l-14.688,0l0,-30.871l-26.23,0l0,30.871l-14.679,0l0,-76.535l14.679,0l0,30.976l26.23,0z" fill="#BDC3C5"/>
   <path id="svg_55" d="m674.25,439.165l0,-30.977l14.688,0l0,76.535l-14.688,0l0,-30.87l-26.23,0l0,30.87l-14.679,0l0,-76.535l14.679,0l0,30.977l26.23,0z" fill="#BDC3C5"/>
   <path id="svg_56" d="m674.25,362.63l0,-30.977l14.688,0l0,76.535l-14.688,0l0,-30.871l-26.23,0l0,30.871l-14.679,0l0,-76.535l14.679,0l0,30.977l26.23,0z" fill="#BDC3C5"/>
  </g>
 </g>
</svg>