<svg width="600" height="200" xmlns="http://www.w3.org/2000/svg">
    <defs>
      <linearGradient id="gradient" x1="0%" y1="0%" x2="0%" y2="100%">
        <stop offset="0%" style="stop-color:#8b5cf6;stop-opacity:0.3" />
        <stop offset="100%" style="stop-color:#8b5cf6;stop-opacity:0.1" />
      </linearGradient>
    </defs>
    
    <rect width="600" height="200" fill="#ffffff"/>
    
    <line x1="40" y1="40" x2="560" y2="40" stroke="#e5e7eb" stroke-width="1"/><line x1="40" y1="65" x2="560" y2="65" stroke="#e5e7eb" stroke-width="1"/><line x1="40" y1="90" x2="560" y2="90" stroke="#e5e7eb" stroke-width="1"/><line x1="40" y1="115" x2="560" y2="115" stroke="#e5e7eb" stroke-width="1"/><line x1="40" y1="140" x2="560" y2="140" stroke="#e5e7eb" stroke-width="1"/>
    
    <path d="M40,140 L40,52.5 L87.27272727272728,90 L134.54545454545456,115 L181.8181818181818,90 L229.0909090909091,102.5 L276.3636363636364,40 L323.6363636363636,127.5 L370.9090909090909,140 L418.1818181818182,77.5 L465.4545454545455,90 L512.7272727272727,65 L560,65 L560,140 Z" fill="url(#gradient)"/>
    <path d="M40,52.5 L87.27272727272728,90 L134.54545454545456,115 L181.8181818181818,90 L229.0909090909091,102.5 L276.3636363636364,40 L323.6363636363636,127.5 L370.9090909090909,140 L418.1818181818182,77.5 L465.4545454545455,90 L512.7272727272727,65 L560,65" stroke="#8b5cf6" stroke-width="2" fill="none"/>
    
    <circle cx="40" cy="52.5" r="3" fill="#8b5cf6"/><circle cx="87.27272727272728" cy="90" r="3" fill="#8b5cf6"/><circle cx="134.54545454545456" cy="115" r="3" fill="#8b5cf6"/><circle cx="181.8181818181818" cy="90" r="3" fill="#8b5cf6"/><circle cx="229.0909090909091" cy="102.5" r="3" fill="#8b5cf6"/><circle cx="276.3636363636364" cy="40" r="3" fill="#8b5cf6"/><circle cx="323.6363636363636" cy="127.5" r="3" fill="#8b5cf6"/><circle cx="370.9090909090909" cy="140" r="3" fill="#8b5cf6"/><circle cx="418.1818181818182" cy="77.5" r="3" fill="#8b5cf6"/><circle cx="465.4545454545455" cy="90" r="3" fill="#8b5cf6"/><circle cx="512.7272727272727" cy="65" r="3" fill="#8b5cf6"/><circle cx="560" cy="65" r="3" fill="#8b5cf6"/>
    
    <!-- Month labels -->
    <text x="40" y="155" text-anchor="middle" font-family="Arial, sans-serif" font-size="10" fill="#6b7280">Aug 2024</text><text x="181.8181818181818" y="155" text-anchor="middle" font-family="Arial, sans-serif" font-size="10" fill="#6b7280">Nov 2024</text><text x="323.6363636363636" y="155" text-anchor="middle" font-family="Arial, sans-serif" font-size="10" fill="#6b7280">Feb 2025</text><text x="465.4545454545455" y="155" text-anchor="middle" font-family="Arial, sans-serif" font-size="10" fill="#6b7280">May 2025</text>
    
    <text x="300" y="25" text-anchor="middle" font-family="Arial, sans-serif" font-size="16" font-weight="bold" fill="#374151">Active Contributors</text>
    <text x="15" y="45" text-anchor="middle" font-family="Arial, sans-serif" font-size="12" fill="#6b7280">15</text>
    <text x="15" y="145" text-anchor="middle" font-family="Arial, sans-serif" font-size="12" fill="#6b7280">7</text>
  </svg>