<svg width="600" height="200" xmlns="http://www.w3.org/2000/svg">
    <defs>
      <linearGradient id="gradient" x1="0%" y1="0%" x2="0%" y2="100%">
        <stop offset="0%" style="stop-color:#3b82f6;stop-opacity:0.3" />
        <stop offset="100%" style="stop-color:#3b82f6;stop-opacity:0.1" />
      </linearGradient>
    </defs>
    
    <rect width="600" height="200" fill="#ffffff"/>
    
    <line x1="40" y1="40" x2="560" y2="40" stroke="#e5e7eb" stroke-width="1"/><line x1="40" y1="70" x2="560" y2="70" stroke="#e5e7eb" stroke-width="1"/><line x1="40" y1="100" x2="560" y2="100" stroke="#e5e7eb" stroke-width="1"/><line x1="40" y1="130" x2="560" y2="130" stroke="#e5e7eb" stroke-width="1"/><line x1="40" y1="160" x2="560" y2="160" stroke="#e5e7eb" stroke-width="1"/>
    
    <path d="M40,160 L40,40 L87.27272727272728,118.67219917012449 L134.54545454545456,160 L181.8181818181818,143.56846473029046 L229.0909090909091,132.61410788381744 L276.3636363636364,130.62240663900414 L323.6363636363636,160 L370.9090909090909,144.5643153526971 L418.1818181818182,94.27385892116182 L465.4545454545455,133.60995850622407 L512.7272727272727,99.25311203319502 L560,115.18672199170125 L560,160 Z" fill="url(#gradient)"/>
    <path d="M40,40 L87.27272727272728,118.67219917012449 L134.54545454545456,160 L181.8181818181818,143.56846473029046 L229.0909090909091,132.61410788381744 L276.3636363636364,130.62240663900414 L323.6363636363636,160 L370.9090909090909,144.5643153526971 L418.1818181818182,94.27385892116182 L465.4545454545455,133.60995850622407 L512.7272727272727,99.25311203319502 L560,115.18672199170125" stroke="#3b82f6" stroke-width="2" fill="none"/>
    
    <circle cx="40" cy="40" r="3" fill="#3b82f6"/><circle cx="87.27272727272728" cy="118.67219917012449" r="3" fill="#3b82f6"/><circle cx="134.54545454545456" cy="160" r="3" fill="#3b82f6"/><circle cx="181.8181818181818" cy="143.56846473029046" r="3" fill="#3b82f6"/><circle cx="229.0909090909091" cy="132.61410788381744" r="3" fill="#3b82f6"/><circle cx="276.3636363636364" cy="130.62240663900414" r="3" fill="#3b82f6"/><circle cx="323.6363636363636" cy="160" r="3" fill="#3b82f6"/><circle cx="370.9090909090909" cy="144.5643153526971" r="3" fill="#3b82f6"/><circle cx="418.1818181818182" cy="94.27385892116182" r="3" fill="#3b82f6"/><circle cx="465.4545454545455" cy="133.60995850622407" r="3" fill="#3b82f6"/><circle cx="512.7272727272727" cy="99.25311203319502" r="3" fill="#3b82f6"/><circle cx="560" cy="115.18672199170125" r="3" fill="#3b82f6"/>
    
    <text x="300" y="25" text-anchor="middle" font-family="Arial, sans-serif" font-size="16" font-weight="bold" fill="#374151">Monthly Commits</text>
    <text x="15" y="45" text-anchor="middle" font-family="Arial, sans-serif" font-size="12" fill="#6b7280">297</text>
    <text x="15" y="165" text-anchor="middle" font-family="Arial, sans-serif" font-size="12" fill="#6b7280">56</text>
  </svg>