<svg width="600" height="200" xmlns="http://www.w3.org/2000/svg">
    <defs>
      <linearGradient id="gradient" x1="0%" y1="0%" x2="0%" y2="100%">
        <stop offset="0%" style="stop-color:#10b981;stop-opacity:0.3" />
        <stop offset="100%" style="stop-color:#10b981;stop-opacity:0.1" />
      </linearGradient>
    </defs>
    
    <rect width="600" height="200" fill="#ffffff"/>
    
    <line x1="40" y1="40" x2="560" y2="40" stroke="#e5e7eb" stroke-width="1"/><line x1="40" y1="65" x2="560" y2="65" stroke="#e5e7eb" stroke-width="1"/><line x1="40" y1="90" x2="560" y2="90" stroke="#e5e7eb" stroke-width="1"/><line x1="40" y1="115" x2="560" y2="115" stroke="#e5e7eb" stroke-width="1"/><line x1="40" y1="140" x2="560" y2="140" stroke="#e5e7eb" stroke-width="1"/>
    
    <path d="M40,140 L40,70 L87.27272727272728,80 L134.54545454545456,140 L181.8181818181818,80 L229.0909090909091,110 L276.3636363636364,40 L323.6363636363636,120 L370.9090909090909,70 L418.1818181818182,40 L465.4545454545455,120 L512.7272727272727,90 L560,50 L560,140 Z" fill="url(#gradient)"/>
    <path d="M40,70 L87.27272727272728,80 L134.54545454545456,140 L181.8181818181818,80 L229.0909090909091,110 L276.3636363636364,40 L323.6363636363636,120 L370.9090909090909,70 L418.1818181818182,40 L465.4545454545455,120 L512.7272727272727,90 L560,50" stroke="#10b981" stroke-width="2" fill="none"/>
    
    <circle cx="40" cy="70" r="3" fill="#10b981"/><circle cx="87.27272727272728" cy="80" r="3" fill="#10b981"/><circle cx="134.54545454545456" cy="140" r="3" fill="#10b981"/><circle cx="181.8181818181818" cy="80" r="3" fill="#10b981"/><circle cx="229.0909090909091" cy="110" r="3" fill="#10b981"/><circle cx="276.3636363636364" cy="40" r="3" fill="#10b981"/><circle cx="323.6363636363636" cy="120" r="3" fill="#10b981"/><circle cx="370.9090909090909" cy="70" r="3" fill="#10b981"/><circle cx="418.1818181818182" cy="40" r="3" fill="#10b981"/><circle cx="465.4545454545455" cy="120" r="3" fill="#10b981"/><circle cx="512.7272727272727" cy="90" r="3" fill="#10b981"/><circle cx="560" cy="50" r="3" fill="#10b981"/>
    
    <!-- Month labels -->
    <text x="40" y="155" text-anchor="middle" font-family="Arial, sans-serif" font-size="10" fill="#6b7280">Aug 2024</text><text x="181.8181818181818" y="155" text-anchor="middle" font-family="Arial, sans-serif" font-size="10" fill="#6b7280">Nov 2024</text><text x="323.6363636363636" y="155" text-anchor="middle" font-family="Arial, sans-serif" font-size="10" fill="#6b7280">Feb 2025</text><text x="465.4545454545455" y="155" text-anchor="middle" font-family="Arial, sans-serif" font-size="10" fill="#6b7280">May 2025</text>
    
    <text x="300" y="25" text-anchor="middle" font-family="Arial, sans-serif" font-size="16" font-weight="bold" fill="#374151">Merged Pull Requests</text>
    <text x="15" y="45" text-anchor="middle" font-family="Arial, sans-serif" font-size="12" fill="#6b7280">12</text>
    <text x="15" y="145" text-anchor="middle" font-family="Arial, sans-serif" font-size="12" fill="#6b7280">2</text>
  </svg>