<svg width="600" height="200" xmlns="http://www.w3.org/2000/svg">
    <defs>
      <linearGradient id="gradient" x1="0%" y1="0%" x2="0%" y2="100%">
        <stop offset="0%" style="stop-color:#8b5cf6;stop-opacity:0.3" />
        <stop offset="100%" style="stop-color:#8b5cf6;stop-opacity:0.1" />
      </linearGradient>
    </defs>
    
    <rect width="600" height="200" fill="#ffffff"/>
    
    <line x1="40" y1="40" x2="560" y2="40" stroke="#e5e7eb" stroke-width="1"/><line x1="40" y1="70" x2="560" y2="70" stroke="#e5e7eb" stroke-width="1"/><line x1="40" y1="100" x2="560" y2="100" stroke="#e5e7eb" stroke-width="1"/><line x1="40" y1="130" x2="560" y2="130" stroke="#e5e7eb" stroke-width="1"/><line x1="40" y1="160" x2="560" y2="160" stroke="#e5e7eb" stroke-width="1"/>
    
    <path d="M40,160 L40,49.230769230769226 L87.27272727272728,95.38461538461539 L134.54545454545456,160 L181.8181818181818,150.76923076923077 L229.0909090909091,95.38461538461539 L276.3636363636364,58.46153846153847 L323.6363636363636,150.76923076923077 L370.9090909090909,86.15384615384615 L418.1818181818182,40 L465.4545454545455,86.15384615384615 L512.7272727272727,123.07692307692307 L560,76.92307692307692 L560,160 Z" fill="url(#gradient)"/>
    <path d="M40,49.230769230769226 L87.27272727272728,95.38461538461539 L134.54545454545456,160 L181.8181818181818,150.76923076923077 L229.0909090909091,95.38461538461539 L276.3636363636364,58.46153846153847 L323.6363636363636,150.76923076923077 L370.9090909090909,86.15384615384615 L418.1818181818182,40 L465.4545454545455,86.15384615384615 L512.7272727272727,123.07692307692307 L560,76.92307692307692" stroke="#8b5cf6" stroke-width="2" fill="none"/>
    
    <circle cx="40" cy="49.230769230769226" r="3" fill="#8b5cf6"/><circle cx="87.27272727272728" cy="95.38461538461539" r="3" fill="#8b5cf6"/><circle cx="134.54545454545456" cy="160" r="3" fill="#8b5cf6"/><circle cx="181.8181818181818" cy="150.76923076923077" r="3" fill="#8b5cf6"/><circle cx="229.0909090909091" cy="95.38461538461539" r="3" fill="#8b5cf6"/><circle cx="276.3636363636364" cy="58.46153846153847" r="3" fill="#8b5cf6"/><circle cx="323.6363636363636" cy="150.76923076923077" r="3" fill="#8b5cf6"/><circle cx="370.9090909090909" cy="86.15384615384615" r="3" fill="#8b5cf6"/><circle cx="418.1818181818182" cy="40" r="3" fill="#8b5cf6"/><circle cx="465.4545454545455" cy="86.15384615384615" r="3" fill="#8b5cf6"/><circle cx="512.7272727272727" cy="123.07692307692307" r="3" fill="#8b5cf6"/><circle cx="560" cy="76.92307692307692" r="3" fill="#8b5cf6"/>
    
    <text x="300" y="25" text-anchor="middle" font-family="Arial, sans-serif" font-size="16" font-weight="bold" fill="#374151">Pull Requests Opened</text>
    <text x="15" y="45" text-anchor="middle" font-family="Arial, sans-serif" font-size="12" fill="#6b7280">15</text>
    <text x="15" y="165" text-anchor="middle" font-family="Arial, sans-serif" font-size="12" fill="#6b7280">2</text>
  </svg>