<svg width="600" height="200" xmlns="http://www.w3.org/2000/svg">
    <defs>
      <linearGradient id="gradient" x1="0%" y1="0%" x2="0%" y2="100%">
        <stop offset="0%" style="stop-color:#3b82f6;stop-opacity:0.3" />
        <stop offset="100%" style="stop-color:#3b82f6;stop-opacity:0.1" />
      </linearGradient>
    </defs>
    
    <rect width="600" height="200" fill="#ffffff"/>
    
    <line x1="40" y1="40" x2="560" y2="40" stroke="#e5e7eb" stroke-width="1"/><line x1="40" y1="65" x2="560" y2="65" stroke="#e5e7eb" stroke-width="1"/><line x1="40" y1="90" x2="560" y2="90" stroke="#e5e7eb" stroke-width="1"/><line x1="40" y1="115" x2="560" y2="115" stroke="#e5e7eb" stroke-width="1"/><line x1="40" y1="140" x2="560" y2="140" stroke="#e5e7eb" stroke-width="1"/>
    
    <path d="M40,140 L40,40 L87.27272727272728,105.56016597510373 L134.54545454545456,140 L181.8181818181818,126.30705394190872 L229.0909090909091,117.17842323651452 L276.3636363636364,115.51867219917013 L323.6363636363636,140 L370.9090909090909,127.13692946058092 L418.1818181818182,85.22821576763485 L465.4545454545455,118.00829875518673 L512.7272727272727,89.37759336099586 L560,102.65560165975103 L560,140 Z" fill="url(#gradient)"/>
    <path d="M40,40 L87.27272727272728,105.56016597510373 L134.54545454545456,140 L181.8181818181818,126.30705394190872 L229.0909090909091,117.17842323651452 L276.3636363636364,115.51867219917013 L323.6363636363636,140 L370.9090909090909,127.13692946058092 L418.1818181818182,85.22821576763485 L465.4545454545455,118.00829875518673 L512.7272727272727,89.37759336099586 L560,102.65560165975103" stroke="#3b82f6" stroke-width="2" fill="none"/>
    
    <circle cx="40" cy="40" r="3" fill="#3b82f6"/><circle cx="87.27272727272728" cy="105.56016597510373" r="3" fill="#3b82f6"/><circle cx="134.54545454545456" cy="140" r="3" fill="#3b82f6"/><circle cx="181.8181818181818" cy="126.30705394190872" r="3" fill="#3b82f6"/><circle cx="229.0909090909091" cy="117.17842323651452" r="3" fill="#3b82f6"/><circle cx="276.3636363636364" cy="115.51867219917013" r="3" fill="#3b82f6"/><circle cx="323.6363636363636" cy="140" r="3" fill="#3b82f6"/><circle cx="370.9090909090909" cy="127.13692946058092" r="3" fill="#3b82f6"/><circle cx="418.1818181818182" cy="85.22821576763485" r="3" fill="#3b82f6"/><circle cx="465.4545454545455" cy="118.00829875518673" r="3" fill="#3b82f6"/><circle cx="512.7272727272727" cy="89.37759336099586" r="3" fill="#3b82f6"/><circle cx="560" cy="102.65560165975103" r="3" fill="#3b82f6"/>
    
    <!-- Month labels -->
    <text x="40" y="155" text-anchor="middle" font-family="Arial, sans-serif" font-size="10" fill="#6b7280">Aug 2024</text><text x="181.8181818181818" y="155" text-anchor="middle" font-family="Arial, sans-serif" font-size="10" fill="#6b7280">Nov 2024</text><text x="323.6363636363636" y="155" text-anchor="middle" font-family="Arial, sans-serif" font-size="10" fill="#6b7280">Feb 2025</text><text x="465.4545454545455" y="155" text-anchor="middle" font-family="Arial, sans-serif" font-size="10" fill="#6b7280">May 2025</text>
    
    <text x="300" y="25" text-anchor="middle" font-family="Arial, sans-serif" font-size="16" font-weight="bold" fill="#374151">Total Commits (All Branches)</text>
    <text x="15" y="45" text-anchor="middle" font-family="Arial, sans-serif" font-size="12" fill="#6b7280">297</text>
    <text x="15" y="145" text-anchor="middle" font-family="Arial, sans-serif" font-size="12" fill="#6b7280">56</text>
  </svg>